{"title":"I Frankenstein (2014) 720p Blu-Ray x264 [Dual-Audio][English DD","uid":11206678,"size":947544825,"categoryP":"video","categoryS":"hd___movies","magnet":"?xt=urn:btih:8fbd3ae929b513892f34292e4f14f471fe439b61&amp;dn=I+Frankenstein+%282014%29+720p+Blu-Ray+x264+%5BDual-Audio%5D%5BEnglish+DD+&amp;tr=udp%3A%2F%2Ftracker.openbittorrent.com%3A80&amp;tr=udp%3A%2F%2Fopen.demonii.com%3A1337&amp;tr=udp%3A%2F%2Ftracker.coppersurfer.tk%3A6969&amp;tr=udp%3A%2F%2Fexodus.desync.com%3A6969","seeders":8,"leechers":2,"uploader":"inovai","files":3,"time":1413229070,"description":"I Frankenstein (2014) 720p Blu-Ray x264 [Dual-Audio][English DD 5.1 + Hindi] - Mafiaking - TeamTNT\n\nCover:\n  &lt;a href=&quot;\nhttp://forum.primetimeshow.in/viewtopic.php?f=7&amp;t=779&quot; rel=&quot;nofollow&quot; target=&quot;_NEW&quot;&gt;\nhttp://forum.primetimeshow.in/viewtopic.php?f=7&amp;t=779&lt;/a&gt;\n\nRatings: 5.2/10\n\nGENRE: Action | Fantasy | Sci-Fi\n\n\nScreenshots:\n &lt;a href=&quot;\nhttp://m.primetimeshow.in/share-7BB8_543C0DC0.html&quot; rel=&quot;nofollow&quot; target=&quot;_NEW&quot;&gt;\nhttp://m.primetimeshow.in/share-7BB8_543C0DC0.html&lt;/a&gt;\n &lt;a href=&quot;\nhttp://m.primetimeshow.in/share-2F64_543C0DC0.html&quot; rel=&quot;nofollow&quot; target=&quot;_NEW&quot;&gt;\nhttp://m.primetimeshow.in/share-2F64_543C0DC0.html&lt;/a&gt;\n  &lt;a href=&quot;\nhttp://m.primetimeshow.in/share-5D82_543BFD06.html&quot; rel=&quot;nofollow&quot; target=&quot;_NEW&quot;&gt;\nhttp://m.primetimeshow.in/share-5D82_543BFD06.html&lt;/a&gt;\n  &lt;a href=&quot;\nhttp://m.primetimeshow.in/share-63B4_543BFD06.html&quot; rel=&quot;nofollow&quot; target=&quot;_NEW&quot;&gt;\nhttp://m.primetimeshow.in/share-63B4_543BFD06.html&lt;/a&gt;\n  &lt;a href=&quot;\nhttp://m.primetimeshow.in/share-FEF6_543BFD06.html&quot; rel=&quot;nofollow&quot; target=&quot;_NEW&quot;&gt;\nhttp://m.primetimeshow.in/share-FEF6_543BFD06.html&lt;/a&gt;\n  &lt;a href=&quot;\nhttp://m.primetimeshow.in/share-05C1_543BFD06.html&quot; rel=&quot;nofollow&quot; target=&quot;_NEW&quot;&gt;\nhttp://m.primetimeshow.in/share-05C1_543BFD06.html&lt;/a&gt;\n  &lt;a href=&quot;\nhttp://m.primetimeshow.in/share-7D18_543BFD06.html&quot; rel=&quot;nofollow&quot; target=&quot;_NEW&quot;&gt;\nhttp://m.primetimeshow.in/share-7D18_543BFD06.html&lt;/a&gt;\n\n\n\nGeneral\nUnique ID : 171843008762876038219006157330209838034 (0x8147C2772D671A8F9166627BE23813D2)\nComplete name : I Frankenstein (2014) 720p Blu-Ray x264 [Dual-Audio][English DD 5.1 + Hindi] - Mafiaking - TeamTNT.mkv\nFormat : Matroska\nFormat version : Version 4 / Version 2\nFile size : 895 MiB\nDuration : 1h 32mn\nOverall bit rate : 1 354 Kbps\nMovie name : I Frankenstein (2014) 720p Blu-Ray x264 [Dual-Audio][English DD 5.1 + Hindi] - Mafiaking - TeamTNT\nEncoded date : UTC 2014-10-13 13:44:38\nWriting application : mkvmerge v7.0.0 ('Where We Going') 64bit built on Jun 9 2014 15:16:27\nWriting library : libebml v1.3.0 + libmatroska v1.4.1\n\n\nVideo\nID : 1\nFormat : AVC\nFormat/Info : Advanced Video Codec\nFormat profile : &lt;a class=&quot;__cf_email__&quot; href=&quot;/cdn-cgi/l/email-protection&quot; data-cfemail=&quot;3179585659717d051f00&quot;&gt;[email&amp;#160;protected]&lt;/a&gt;&lt;script cf-hash='f9e31' type=&quot;text/javascript&quot;&gt;\n/* &lt;![CDATA[ */!function(){try{var t=&quot;currentScript&quot;in document?document.currentScript:function(){for(var t=document.getElementsByTagName(&quot;script&quot;),e=t.length;e--;)if(t[e].getAttribute(&quot;cf-hash&quot;))return t[e]}();if(t&amp;&amp;t.previousSibling){var e,r,n,i,c=t.previousSibling,a=c.getAttribute(&quot;data-cfemail&quot;);if(a){for(e=&quot;&quot;,r=parseInt(a.substr(0,2),16),n=2;a.length-n;n+=2)i=parseInt(a.substr(n,2),16)^r,e+=String.fromCharCode(i);e=document.createTextNode(e),c.parentNode.replaceChild(e,c)}}}catch(u){}}();/* ]]&gt; */&lt;/script&gt;\nFormat settings, CABAC : Yes\nFormat settings, ReFrames : 4 frames\nCodec ID : V_MPEG4/ISO/AVC\nDuration : 1h 32mn\nBit rate : 1 000 Kbps\nWidth : 1 280 pixels\nHeight : 534 pixels\nDisplay aspect ratio : 2.40:1\nFrame rate mode : Constant\nFrame rate : 23.976 fps\nColor space : YUV\nChroma subsampling : 4:2:0\nBit depth : 8 bits\nScan type : Progressive\nBits/(Pixel*Frame) : 0.061\nStream size : 644 MiB (72%)\nTitle : Mafiaking\nLanguage : English\nDefault : Yes\nForced : No\n\n\nAudio #1\nID : 2\nFormat : AC-3\nFormat/Info : Audio Coding 3\nMode extension : CM (complete main)\nFormat settings, Endianness : Big\nCodec ID : A_AC3\nDuration : 1h 32mn\nBit rate mode : Constant\nBit rate : 128 Kbps\nChannel(s) : 2 channels\nChannel positions : Front: L R\nSampling rate : 48.0 KHz\nBit depth : 16 bits\nCompression mode : Lossy\nStream size : 84.6 MiB (9%)\nTitle : Mafiaking\nLanguage : Hindi\nDefault : Yes\nForced : No\n\n\nAudio #2\nID : 3\nFormat : AC-3\nFormat/Info : Audio Coding 3\nMode extension : CM (complete main)\nFormat settings, Endianness : Big\nCodec ID : A_AC3\nDuration : 1h 32mn\nBit rate mode : Constant\nBit rate : 224 Kbps\nChannel(s) : 6 channels\nChannel positions : Front: L C R, Side: L R, LFE\nSampling rate : 48.0 KHz\nBit depth : 16 bits\nCompression mode : Lossy\nStream size : 148 MiB (17%)\nTitle : Mafiaking\nLanguage : English\nDefault : No\nForced : No\n\nSAMPLE WITH IN TORRENT\n\nSpecial Thanks To Bhatti87 For Hindi Audio.\n\n\nThanks to Mafiaking - TeamTNT!\n\nSeed n Enjoy!!","torrent":{"xt":"urn:btih:8fbd3ae929b513892f34292e4f14f471fe439b61","amp;dn":"I+Frankenstein+%282014%29+720p+Blu-Ray+x264+%5BDual-Audio%5D%5BEnglish+DD+","amp;tr":["udp%3A%2F%2Ftracker.openbittorrent.com%3A80","udp%3A%2F%2Fopen.demonii.com%3A1337","udp%3A%2F%2Ftracker.coppersurfer.tk%3A6969","udp%3A%2F%2Fexodus.desync.com%3A6969"],"infoHash":"8fbd3ae929b513892f34292e4f14f471fe439b61","infoHashBuffer":{"type":"Buffer","data":[143,189,58,233,41,181,19,137,47,52,41,46,79,20,244,113,254,67,155,97]},"announce":[],"urlList":[]}}